<svg xmlns="http://www.w3.org/2000/svg" xmlns:svg="http://www.w3.org/2000/svg" id="svg2" width="518.255" height="112.287" version="1.1"><metadata id="metadata8"/><defs id="defs6"><filter id="filter3721" width="1.22" height="1.264" x="-.11" y="-.132" color-interpolation-filters="sRGB"><feGaussianBlur id="feGaussianBlur3723" stdDeviation="1.583"/></filter></defs><g id="g2996" transform="translate(4.1603e-6,-3.5246245e-8)"><path id="path3975" d="M 56.114132,4.8833212e-6 C 25.114963,4.8833212e-6 -4.1603e-6,25.114978 -4.1603e-6,56.114142 -4.1603e-6,87.113305 25.114963,112.28655 56.114132,112.28655 l 0,-112.2865451166788 z" style="fill:#4fc1e9;fill-opacity:1;fill-rule:nonzero;stroke:none"/><path id="path3990" d="m 56.114114,112.28655 c 30.999169,0 56.114136,-25.173239 56.114136,-56.172414 C 112.22825,25.114973 87.113283,3.524624e-8 56.114114,3.524624e-8 L 56.114114,112.28655 z" style="fill:#38afda;fill-opacity:1;fill-rule:nonzero;stroke:none"/><g style="fill:#fff;stroke:#000;stroke-width:1.31549346;stroke-miterlimit:4;stroke-opacity:1;stroke-dasharray:none" id="g4000" transform="matrix(0.760171,0,0,0.760171,-143.13613,4.4292139)"><path id="path2892-8" d="m 226.8177,93.79243 c -4.47461,10.96165 -1.19782,8.21831 -7.54303,16.87904 8.97793,-6.39373 11.76441,-0.76104 20.52935,-10.677834 m -13.01611,-6.21543 c -10.55003,-6.472044 -17.32072,-16.089297 -17.32072,-26.44728 0,-19.545621 23.5698,-35.390905 52.64521,-35.390905 29.07478,0 52.64521,15.844976 52.64521,35.390905 l 0,0 c 0,19.545621 -23.25449,35.706224 -52.32989,35.706224 -9.50083,0 -14.88821,-0.0648 -22.58296,-3.02466" style="fill:#fff;stroke:#000;stroke-width:1.31549346;stroke-linecap:round;stroke-linejoin:round;stroke-miterlimit:4;stroke-opacity:1;stroke-dasharray:none"/><path style="fill:#fff;stroke:#000;stroke-width:1.31549346;stroke-linecap:butt;stroke-linejoin:miter;stroke-miterlimit:4;stroke-opacity:1;stroke-dasharray:none" id="path3173" d="m 226.78144,58.420602 c 6.99704,-8.334667 21.1651,-14.210451 31.58966,-13.519168"/></g></g><text style="font-size:12px;font-style:normal;font-weight:400;line-height:125%;letter-spacing:0;word-spacing:0;fill:#000;fill-opacity:1;stroke:none;font-family:Sans" id="text3771" x="126.915" y="100.559" xml:space="preserve"><tspan id="tspan3773" x="126.915" y="100.559" style="font-size:128px;font-style:normal;font-variant:normal;font-weight:400;font-stretch:normal;font-family:Ubuntu;-inkscape-font-specification:Ubuntu">CIMBA</tspan></text></svg>